<svg xmlns="http://www.w3.org/2000/svg" xmlns:xlink="http://www.w3.org/1999/xlink" version="1.1" width="1181px" height="551px" viewBox="-0.5 -0.5 1181 551" content="&lt;mxfile&gt;&lt;diagram id=&quot;gitflow&quot; name=&quot;Gitflow&quot;&gt;3ZzLcqM4FEC/hm0XkniIpe046anqbCZTNWsFCUM1hhQmiXu+fgQIDEh2KPOQnWwC90rdcHRfElIMtNkfnzLyFj6nlMUGNOnRQA8GhAA6mP8qJH8qievYlWCXRbQSmSfBS/QfEz1r6XtE2UHIKlGepnEevXWFfpokzM87MpJl6We3WZDGtCN4IzsmCV58EsvSfyOah/V7WeZJ8ZNFu1D8144pFHtSNxaCQ0ho+tkSoa2BNlma5tXV/rhhcQGvy+XxjLZ5sIwl+ZAOeZTzlyo7fZD4XbzfU5QHMX8s3nmLDIwMzxEXK09crJG4wMDYOgbGxoq3cQ3PNlZiMA/5nxpYzo78cdZBmuRiNItXre5FK8DvSRztEn7t86dnGRd8sCyPOPeVUOwjSovWa/k9xasXPdixJRLv/cTSPcuzP7yJ0Fr1oAgjrIfk8zSiVj2gYWswaxkRRrRr/uUTZ34hUKuxxyRhzyRK1juJvcQuS98TyoqOZoEsiuNNGqdZqUQBZZBZXH7Is/Q3a2vsV/CKp0EFYBcVULACJp4R1s80D6LjeFwBs31ficv1Xc+aBxc0l8b1N4sZObDRvPyAwSBQ8fKYb5eaOXjhpXk9sA8Wp2+jeVHAXEqVvAKfvoJ5eCFnaV6PjOTv2Xj7YpB6AVLxevWIQ2eyryasL8ariPW/yGtRBvV47blmQLoE1qh0WfRsm6mPbMueBu6A1ODNnhjUbMNStzjdgLoMTJRKBmSSOemKPKLGm1XKxfma1GEBnYevIvPMyVfkHTVfWikX5ws87Nrz2K8qU83JV+QpNd+gUi7O1wks6E9UCgzIbHPxzcnuGUpQudRAq0IGfphD0AIF2nPpSkI+AUEHdRFirKgNFAjhRAjRZYQ/wD1AxJohWhch3gVCYGpkWFShv6JEjoUsoatiwYzfJWnCykqdZLkk61XvDalKUy+SoUuoDul75tdVcb2qR7IdE832YpAZ7SzOyUB5XULy6KO7VjeGjkjEUwJqcuyVgKgCEHV1AWJ/JVEuoaHkEJYTv8KVWpz8mBwOkXIVBpc/EhY4xm5qVBqwiPJjk/Hf8iprU388xulOMQu8gl9TWsj8zhUh/RgYF7XSmvi/d+XMvdXlsfwZY6GB9qF4ZvxpLjnxdXAHEQlUxgm1EeFzO3DGMpuZ3aOqiLvCLpsp25d22bSczS6RPAqZPrssRuFZtQY0GuwgGpkq0eq1ST4nviEYVFvVIZa2zrjombWtK3yzWa760jeblnP5Zm157QEI9flmNQAjvPMC2kE8QpV3Is08rvfPOXBQW2ewggMSqDz7vPME6igSqNaUAXUmUEXI0jdTLWloTKAKGPpmpfVk8NLXSd4jejswxZfc7gpGS0NM4EEsO17jRS3H8yZaG6r3RzUf2cR9a20IKZaG0BRLQ/C7UHR0UpSXee+UItZJUV7nvVOKwNSIMRwTGHtFXHvLBraJyRbF6PYoQnM5itkYir1M29ZgC3oLB0bYo4gXpDgmvdwURWCa+jDSMcbY+xjRxhjYACkmGTNihKBLETkLUhxjjDdFETkaKY6pdW6Koq2T4pha56Youjo92v4uFPt196IUne9C0dNJ0f0uFKXZy5IYgzGlTu8bbktjIYhda1GMTYHY7N5bjmLMdiyh4w/U4MALiIonZQwyZyJ7621ztOuDgF9u4HcmQ/WP8qScsbUN7BorYGwtY7018Frip9hrVnurajtpzIKi+Zwn3wCyezhlu3MUMKfYaVbBfCi/gLxk/ghX7u0VUmmm8NHeKUFbeXZEZgUmZvVwyG+fFb4NVluq2OOjYTea0tbb30aUA7z8h5L2Y6i3yg87Bswj4IPhbcR54Hrf+dehcMHQh/rujOTQN9su24rzSxpHdxH6LKTbnUtU9xD5moJELypl4Fsy1nVtWw513QHVFenKp7gc6LZ1fNuUF9BY4xuMZnbfQxXRTFUVTxfM1hlJ/PAeoplj6XbRitU9hDO3P9/SxOqreHbudMWZYDb4dIXStuVo1htQXeGseowxhVtbBY2VdWpzezHP7fuxqoKD0wQ9fnv6UzylrvUHjdD2fw==&lt;/diagram&gt;&lt;/mxfile&gt;"><defs/><g><rect x="380" y="0" width="440" height="40" fill="none" stroke="none" pointer-events="all"/><g fill="rgb(0, 0, 0)" font-family="Helvetica" font-weight="bold" text-anchor="middle" font-size="22px"><text x="599.5" y="29.5">Gitflow ブランチ戦略</text></g><rect x="100" y="100" width="1080" height="40" fill="#fde2e4" stroke="#f5b1b8" pointer-events="all"/><rect x="100" y="180" width="1080" height="40" fill="#ffe5cc" stroke="#f7c794" pointer-events="all"/><rect x="100" y="260" width="1080" height="40" fill="#cfe2ff" stroke="#9ec5ff" pointer-events="all"/><rect x="100" y="340" width="1080" height="40" fill="#d1e7dd" stroke="#9fcdb1" pointer-events="all"/><rect x="100" y="420" width="1080" height="40" fill="#e2d9f3" stroke="#b9a6df" pointer-events="all"/><rect x="0" y="100" width="90" height="40" fill="none" stroke="none" pointer-events="all"/><g fill="#dc3545" font-family="Helvetica" font-weight="bold" text-anchor="middle" font-size="14px"><text x="44.5" y="125.5">main</text></g><rect x="0" y="180" width="90" height="40" fill="none" stroke="none" pointer-events="all"/><g fill="#fd7e14" font-family="Helvetica" font-weight="bold" text-anchor="middle" font-size="14px"><text x="44.5" y="205.5">hotfix</text></g><rect x="0" y="260" width="90" height="40" fill="none" stroke="none" pointer-events="all"/><g fill="#0d6efd" font-family="Helvetica" font-weight="bold" text-anchor="middle" font-size="14px"><text x="44.5" y="285.5">release</text></g><rect x="0" y="340" width="90" height="40" fill="none" stroke="none" pointer-events="all"/><g fill="#198754" font-family="Helvetica" font-weight="bold" text-anchor="middle" font-size="14px"><text x="44.5" y="365.5">develop</text></g><rect x="0" y="420" width="90" height="40" fill="none" stroke="none" pointer-events="all"/><g fill="#6f42c1" font-family="Helvetica" font-weight="bold" text-anchor="middle" font-size="14px"><text x="44.5" y="445.5">feature</text></g><rect x="610" y="68" width="100" height="20" fill="none" stroke="none" pointer-events="all"/><g fill="#dc3545" font-family="Helvetica" font-weight="bold" text-anchor="middle" font-size="11px"><text x="659.5" y="84.5">tag: v1.0</text></g><rect x="810" y="68" width="100" height="20" fill="none" stroke="none" pointer-events="all"/><g fill="#dc3545" font-family="Helvetica" font-weight="bold" text-anchor="middle" font-size="11px"><text x="859.5" y="84.5">tag: v1.0.1</text></g><rect x="1010" y="68" width="100" height="20" fill="none" stroke="none" pointer-events="all"/><g fill="#dc3545" font-family="Helvetica" font-weight="bold" text-anchor="middle" font-size="11px"><text x="1059.5" y="84.5">tag: v1.1</text></g><path d="M 175 120 L 1045 120" fill="none" stroke="#dc3545" stroke-width="3" stroke-miterlimit="10" pointer-events="stroke"/><path d="M 225 360 L 1045 360" fill="none" stroke="#198754" stroke-width="3" stroke-miterlimit="10" pointer-events="stroke"/><path d="M 163 134.7 L 205.26 337.25" fill="none" stroke="#888888" stroke-width="2" stroke-miterlimit="10" stroke-dasharray="6 6" pointer-events="stroke"/><path d="M 206.48 343.13 L 200.93 336.11 L 205.26 337.25 L 208.77 334.48 Z" fill="#888888" stroke="#888888" stroke-width="2" stroke-miterlimit="10" pointer-events="all"/><path d="M 219.92 371.25 L 264.7 422.51" fill="none" stroke="#6f42c1" stroke-width="2" stroke-miterlimit="10" stroke-dasharray="6 6" pointer-events="stroke"/><path d="M 268.65 427.03 L 260.38 423.63 L 264.7 422.51 L 266.4 418.37 Z" fill="#6f42c1" stroke="#6f42c1" stroke-width="2" stroke-miterlimit="10" pointer-events="all"/><g fill="#6f42c1" font-family="Helvetica" text-anchor="middle" font-size="11px"><rect fill="#FFFFFF" stroke="none" x="214" y="394" width="63" height="14" stroke-width="0"/><text x="244.42" y="403.87">feature/login</text></g><path d="M 290.61 429.39 L 343.57 376.43" fill="none" stroke="#6f42c1" stroke-width="2" stroke-miterlimit="10" pointer-events="stroke"/><path d="M 347.81 372.19 L 344.98 380.67 L 343.57 376.43 L 339.33 375.02 Z" fill="#6f42c1" stroke="#6f42c1" stroke-width="2" stroke-miterlimit="10" pointer-events="all"/><path d="M 569 348 L 606.06 298.59" fill="none" stroke="#0d6efd" stroke-width="2" stroke-miterlimit="10" stroke-dasharray="6 6" pointer-events="stroke"/><path d="M 609.66 293.79 L 608.06 302.59 L 606.06 298.59 L 601.66 297.79 Z" fill="#0d6efd" stroke="#0d6efd" stroke-width="2" stroke-miterlimit="10" pointer-events="all"/><g fill="#0d6efd" font-family="Helvetica" text-anchor="middle" font-size="11px"><rect fill="#FFFFFF" stroke="none" x="563" y="314" width="56" height="14" stroke-width="0"/><text x="589.5" y="324">release/1.0</text></g><path d="M 623.61 265.44 L 654.36 142.54" fill="none" stroke="#0d6efd" stroke-width="2" stroke-miterlimit="10" pointer-events="stroke"/><path d="M 655.82 136.72 L 657.76 145.45 L 654.36 142.54 L 650 143.51 Z" fill="#0d6efd" stroke="#0d6efd" stroke-width="2" stroke-miterlimit="10" pointer-events="all"/><path d="M 631.16 290.02 L 692.63 344.57" fill="none" stroke="#0d6efd" stroke-width="2" stroke-miterlimit="10" pointer-events="stroke"/><path d="M 697.12 348.55 L 688.48 346.23 L 692.63 344.57 L 693.79 340.25 Z" fill="#0d6efd" stroke="#0d6efd" stroke-width="2" stroke-miterlimit="10" pointer-events="all"/><path d="M 671.74 129.34 L 741.86 185.48" fill="none" stroke="#fd7e14" stroke-width="2" stroke-miterlimit="10" stroke-dasharray="6 6" pointer-events="stroke"/><path d="M 746.54 189.23 L 737.8 187.35 L 741.86 185.48 L 742.8 181.11 Z" fill="#fd7e14" stroke="#fd7e14" stroke-width="2" stroke-miterlimit="10" pointer-events="all"/><g fill="#fd7e14" font-family="Helvetica" text-anchor="middle" font-size="11px"><rect fill="#FFFFFF" stroke="none" x="696" y="154" width="28" height="14" stroke-width="0"/><text x="709.49" y="163.96">hotfix</text></g><path d="M 771.74 190.66 L 841.86 134.52" fill="none" stroke="#fd7e14" stroke-width="2" stroke-miterlimit="10" pointer-events="stroke"/><path d="M 846.54 130.77 L 842.8 138.89 L 841.86 134.52 L 837.8 132.65 Z" fill="#fd7e14" stroke="#fd7e14" stroke-width="2" stroke-miterlimit="10" pointer-events="all"/><path d="M 767.96 212.72 L 847.69 340.3" fill="none" stroke="#fd7e14" stroke-width="2" stroke-miterlimit="10" pointer-events="stroke"/><path d="M 850.87 345.38 L 843.23 340.72 L 847.69 340.3 L 850.02 336.48 Z" fill="#fd7e14" stroke="#fd7e14" stroke-width="2" stroke-miterlimit="10" pointer-events="all"/><path d="M 966.71 346.58 L 989.61 300.78" fill="none" stroke="#0d6efd" stroke-width="2" stroke-miterlimit="10" stroke-dasharray="6 6" pointer-events="stroke"/><path d="M 992.29 295.42 L 992.29 304.36 L 989.61 300.78 L 985.14 300.78 Z" fill="#0d6efd" stroke="#0d6efd" stroke-width="2" stroke-miterlimit="10" pointer-events="all"/><g fill="#0d6efd" font-family="Helvetica" text-anchor="middle" font-size="11px"><rect fill="#FFFFFF" stroke="none" x="953" y="314" width="56" height="14" stroke-width="0"/><text x="979.62" y="323.75">release/1.1</text></g><path d="M 1005.23 265.94 L 1051.84 141.76" fill="none" stroke="#0d6efd" stroke-width="2" stroke-miterlimit="10" pointer-events="stroke"/><path d="M 1053.95 136.14 L 1054.88 145.03 L 1051.84 141.76 L 1047.39 142.22 Z" fill="#0d6efd" stroke="#0d6efd" stroke-width="2" stroke-miterlimit="10" pointer-events="all"/><path d="M 1009 292 L 1046.06 341.41" fill="none" stroke="#0d6efd" stroke-width="2" stroke-miterlimit="10" pointer-events="stroke"/><path d="M 1049.66 346.21 L 1041.66 342.21 L 1046.06 341.41 L 1048.06 337.41 Z" fill="#0d6efd" stroke="#0d6efd" stroke-width="2" stroke-miterlimit="10" pointer-events="all"/><ellipse cx="160" cy="120" rx="15" ry="15" fill="#dc3545" stroke="#a01928" pointer-events="all"/><ellipse cx="660" cy="120" rx="15" ry="15" fill="#dc3545" stroke="#a01928" pointer-events="all"/><ellipse cx="860" cy="120" rx="15" ry="15" fill="#dc3545" stroke="#a01928" pointer-events="all"/><ellipse cx="1060" cy="120" rx="15" ry="15" fill="#dc3545" stroke="#a01928" pointer-events="all"/><ellipse cx="760" cy="200" rx="15" ry="15" fill="#fd7e14" stroke="#b85a0e" pointer-events="all"/><ellipse cx="620" cy="280" rx="15" ry="15" fill="#0d6efd" stroke="#084298" pointer-events="all"/><ellipse cx="1000" cy="280" rx="15" ry="15" fill="#0d6efd" stroke="#084298" pointer-events="all"/><ellipse cx="210" cy="360" rx="15" ry="15" fill="#198754" stroke="#0f5132" pointer-events="all"/><ellipse cx="360" cy="360" rx="15" ry="15" fill="#198754" stroke="#0f5132" pointer-events="all"/><ellipse cx="560" cy="360" rx="15" ry="15" fill="#198754" stroke="#0f5132" pointer-events="all"/><ellipse cx="710" cy="360" rx="15" ry="15" fill="#198754" stroke="#0f5132" pointer-events="all"/><ellipse cx="860" cy="360" rx="15" ry="15" fill="#198754" stroke="#0f5132" pointer-events="all"/><ellipse cx="960" cy="360" rx="15" ry="15" fill="#198754" stroke="#0f5132" pointer-events="all"/><ellipse cx="1060" cy="360" rx="15" ry="15" fill="#198754" stroke="#0f5132" pointer-events="all"/><ellipse cx="280" cy="440" rx="15" ry="15" fill="#6f42c1" stroke="#432874" pointer-events="all"/><rect x="100" y="490" width="1080" height="60" fill="#f8f9fa" stroke="#dee2e6" pointer-events="all"/><rect x="115" y="495" width="60" height="20" fill="none" stroke="none" pointer-events="all"/><g fill="rgb(0, 0, 0)" font-family="Helvetica" font-weight="bold" font-size="12px"><text x="116.5" y="509.5">凡例</text></g><ellipse cx="185" cy="525" rx="5" ry="5" fill="#888888" stroke="#888888" pointer-events="all"/><ellipse cx="265" cy="525" rx="5" ry="5" fill="#888888" stroke="#888888" pointer-events="all"/><path d="M 190 525 L 251.76 525" fill="none" stroke="#888888" stroke-width="2" stroke-miterlimit="10" stroke-dasharray="6 6" pointer-events="stroke"/><path d="M 257.76 525 L 249.76 529 L 251.76 525 L 249.76 521 Z" fill="#888888" stroke="#888888" stroke-width="2" stroke-miterlimit="10" pointer-events="all"/><rect x="280" y="515" width="100" height="20" fill="none" stroke="none" pointer-events="all"/><g fill="rgb(0, 0, 0)" font-family="Helvetica" font-size="12px"><text x="281.5" y="529.5">ブランチ作成</text></g><ellipse cx="415" cy="525" rx="5" ry="5" fill="#888888" stroke="#888888" pointer-events="all"/><ellipse cx="495" cy="525" rx="5" ry="5" fill="#888888" stroke="#888888" pointer-events="all"/><path d="M 420 525 L 481.76 525" fill="none" stroke="#888888" stroke-width="2" stroke-miterlimit="10" pointer-events="stroke"/><path d="M 487.76 525 L 479.76 529 L 481.76 525 L 479.76 521 Z" fill="#888888" stroke="#888888" stroke-width="2" stroke-miterlimit="10" pointer-events="all"/><rect x="510" y="515" width="80" height="20" fill="none" stroke="none" pointer-events="all"/><g fill="rgb(0, 0, 0)" font-family="Helvetica" font-size="12px"><text x="511.5" y="529.5">マージ</text></g><ellipse cx="625" cy="525" rx="5" ry="5" fill="#888888" stroke="#888888" pointer-events="all"/><ellipse cx="705" cy="525" rx="5" ry="5" fill="#888888" stroke="#888888" pointer-events="all"/><path d="M 630 525 L 700 525" fill="none" stroke="#888888" stroke-width="3" stroke-miterlimit="10" pointer-events="stroke"/><rect x="720" y="515" width="120" height="20" fill="none" stroke="none" pointer-events="all"/><g fill="rgb(0, 0, 0)" font-family="Helvetica" font-size="12px"><text x="721.5" y="529.5">ブランチライン</text></g></g></svg>